<svg width="118" height="26" viewBox="0 0 118 26" fill="none" xmlns="http://www.w3.org/2000/svg">
<path d="M40.858 1.75334C39.0442 -1.25561 28.4882 1.33846 17.2798 7.5519C6.07101 13.7629 -1.54738 21.2378 0.267259 24.2476C1.82654 26.8347 9.8428 25.2754 19.1826 20.8468C19.5989 20.627 19.5705 20.1542 19.0267 20.3242C13.2698 22.3588 8.46907 22.4845 7.22491 20.3242C5.57451 17.4591 10.8053 11.6564 18.9081 7.36376C27.0108 3.0703 34.9184 1.91231 36.5688 4.7775C37.324 6.08952 36.634 8.01649 34.8879 10.1341C34.8808 10.1435 34.8766 10.1538 34.8649 10.1657C34.2192 10.9347 34.6894 11.1663 35.1512 10.7925C39.6193 6.99529 41.9475 3.56488 40.858 1.75334Z" fill="#EF373E"/>
<path d="M24.0488 21.5663C23.0508 21.3088 22.235 20.9592 21.6082 20.5176L22.7416 18.0648C23.4077 18.4711 24.1174 18.78 24.8655 18.9961C25.6157 19.2109 26.3683 19.3198 27.1244 19.3198C27.8929 19.3198 28.4822 19.2162 28.8935 19.0141C29.3018 18.8108 29.507 18.5249 29.507 18.1581C29.507 17.8245 29.3223 17.5526 28.9507 17.3345C28.5788 17.1225 27.8779 16.9085 26.854 16.7015C25.5613 16.4546 24.5562 16.1498 23.8374 15.7883C23.1198 15.4264 22.6187 14.9988 22.3278 14.5079C22.0399 14.0137 21.8961 13.4202 21.8961 12.7194C21.8961 11.9208 22.1335 11.1983 22.6095 10.5541C23.0839 9.90758 23.7475 9.40561 24.6072 9.04125C25.4648 8.67853 26.4432 8.49902 27.5469 8.49902C28.5349 8.49902 29.4919 8.63047 30.4201 8.89419C31.3484 9.15832 32.0751 9.50543 32.6001 9.93552L31.4867 12.3887C30.8853 11.9824 30.2505 11.6735 29.5843 11.4554C28.9177 11.2418 28.2524 11.1338 27.5853 11.1338C26.9325 11.1338 26.4064 11.2545 26.0089 11.4924C25.6111 11.7327 25.4151 12.0568 25.4151 12.4614C25.4151 12.6828 25.4844 12.866 25.6253 13.0147C25.7661 13.161 26.0302 13.3072 26.411 13.4464C26.798 13.5886 27.3739 13.7381 28.1424 13.8991C29.3849 14.1571 30.3629 14.4676 31.0746 14.8279C31.7834 15.1914 32.287 15.617 32.5817 16.1013C32.8776 16.5868 33.0247 17.1669 33.0247 17.8426C33.0247 19.1209 32.5048 20.1286 31.4679 20.8565C30.4298 21.5885 28.9691 21.9529 27.0851 21.9529C26.0616 21.9529 25.0456 21.8239 24.0488 21.5663Z" fill="#2CB34A"/>
<path d="M45.1321 12.4247V21.788H41.7101V20.5162C41.4318 20.959 41.0205 21.3074 40.4814 21.5571C39.9435 21.8094 39.3513 21.9375 38.714 21.9375C37.8794 21.9375 37.1376 21.7399 36.4827 21.3464C35.832 20.9525 35.3209 20.3914 34.9543 19.6602C34.5916 18.9306 34.406 18.0836 34.406 17.1261C34.406 16.155 34.5932 15.2956 34.9669 14.5447C35.3371 13.7947 35.8479 13.2105 36.5015 12.7932C37.156 12.3766 37.8928 12.168 38.714 12.168C39.3513 12.168 39.941 12.2978 40.4714 12.5631C41.0047 12.8273 41.4159 13.1805 41.7101 13.6217V12.4247H45.1321V12.4247ZM41.2115 18.8407C41.545 18.4328 41.7101 17.8511 41.7101 17.0891C41.7101 16.3144 41.545 15.7208 41.2115 15.31C40.8789 14.8988 40.4045 14.6902 39.7885 14.6902C39.1867 14.6902 38.714 14.9038 38.3671 15.3273C38.0202 15.7516 37.8481 16.3501 37.8481 17.1261C37.8481 17.8725 38.0123 18.4488 38.3475 18.8493C38.6818 19.2477 39.1616 19.447 39.7885 19.447C40.4045 19.447 40.8789 19.2445 41.2115 18.8407Z" fill="#2CB34A"/>
<path d="M47.4089 12.4248V12.1681C47.4089 10.9008 47.7541 9.9121 48.437 9.19981C49.1237 8.48711 50.1204 8.12891 51.4261 8.12891C52.1708 8.12891 52.7743 8.21681 53.2336 8.38811V10.9505C52.8616 10.8639 52.5532 10.8212 52.3125 10.8212C51.9021 10.8212 51.5615 10.9341 51.2915 11.1625C51.024 11.3901 50.8894 11.7355 50.8894 12.2026V12.4248H52.7902V14.8768H50.8894V21.7881H47.4089V14.8768C47.4089 14.8768 47.4599 12.4248 47.4089 12.4248Z" fill="#2CB34A"/>
<path d="M64.5735 12.4247V21.788H61.152V20.5162C60.8703 20.959 60.4607 21.3074 59.9208 21.5571C59.3846 21.8094 58.7944 21.9375 58.1533 21.9375C57.3213 21.9375 56.5794 21.7399 55.925 21.3464C55.2722 20.9525 54.764 20.3914 54.3958 19.6602C54.0309 18.9306 53.8491 18.0836 53.8491 17.1261C53.8491 16.155 54.0355 15.2956 54.4054 14.5447C54.7773 13.7947 55.291 13.2105 55.9438 12.7932C56.5991 12.3766 57.3338 12.168 58.1533 12.168C58.7944 12.168 59.3812 12.2978 59.9116 12.5631C60.4432 12.8273 60.8578 13.1805 61.152 13.6217V12.4247H64.5735V12.4247ZM60.6509 18.8407C60.9861 18.4328 61.152 17.8511 61.152 17.0891C61.152 16.3144 60.9861 15.7208 60.6509 15.31C60.319 14.8988 59.8464 14.6902 59.2295 14.6902C58.6285 14.6902 58.1534 14.9038 57.8081 15.3273C57.4629 15.7516 57.2899 16.3501 57.2899 17.1261C57.2899 17.8725 57.4558 18.4488 57.7902 18.8493C58.122 19.2477 58.6026 19.447 59.2295 19.447C59.8464 19.447 60.319 19.2445 60.6509 18.8407Z" fill="#2CB34A"/>
<path d="M73.8827 12.4056V15.4487C73.334 15.2014 72.8053 15.0782 72.2946 15.0782C70.8402 15.0782 70.1118 15.749 70.1118 17.0889V21.7878H66.6463V15.1143C66.6463 14.1091 66.5949 13.2104 66.4946 12.4245H69.7486L69.9601 13.9912C70.1883 13.4141 70.5585 12.9709 71.0701 12.6624C71.5808 12.3576 72.1525 12.2031 72.7903 12.2031C73.2638 12.2031 73.627 12.2713 73.8827 12.4056Z" fill="#2CB34A"/>
<path d="M78.3898 12.4243H74.9114V21.7876H78.3898V12.4243Z" fill="#2CB34A"/>
<path d="M81.4277 20.6452C80.4941 19.7859 80.0269 18.6123 80.0269 17.1257C80.0269 16.1423 80.2517 15.2751 80.7056 14.5275C81.1619 13.7774 81.7997 13.197 82.6201 12.7854C83.4384 12.3734 84.3883 12.168 85.4645 12.168C86.1796 12.168 86.8859 12.2682 87.5796 12.4699C88.2688 12.6732 88.8192 12.9472 89.23 13.2927L88.3457 15.5922C88.0013 15.3248 87.5955 15.11 87.1375 14.951C86.6736 14.79 86.2331 14.7099 85.8085 14.7099C85.0909 14.7099 84.5405 14.9083 84.1572 15.2997C83.7719 15.6925 83.5792 16.2774 83.5792 17.0513C83.5792 17.8375 83.7719 18.4311 84.1572 18.832C84.5405 19.2297 85.0988 19.4289 85.8302 19.4289C86.2519 19.4289 86.6907 19.3496 87.1462 19.1886C87.6001 19.0304 88.0013 18.814 88.3457 18.5449L89.23 20.8103C88.8083 21.1685 88.2458 21.4442 87.55 21.6405C86.8504 21.8373 86.1031 21.9351 85.3103 21.9351C83.6561 21.9351 82.3639 21.5054 81.4277 20.6452Z" fill="#2CB34A"/>
<path d="M92.441 21.3454C91.6331 20.9535 91.0108 20.3874 90.5758 19.6493C90.1386 18.9111 89.9221 18.0456 89.9221 17.0511C89.9221 16.0537 90.1386 15.1898 90.5758 14.4504C91.0108 13.7147 91.6331 13.1503 92.441 12.7568C93.2471 12.3624 94.195 12.1665 95.2858 12.1665C96.3611 12.1665 97.2989 12.3661 98.0989 12.7662C98.9013 13.1647 99.5186 13.7299 99.9528 14.4623C100.39 15.1911 100.606 16.0537 100.606 17.0511C100.606 18.0456 100.39 18.9103 99.9528 19.6406C99.5186 20.3718 98.9013 20.9375 98.0989 21.3351C97.2989 21.736 96.3611 21.9365 95.2858 21.9365C94.195 21.9365 93.2471 21.7397 92.441 21.3454ZM97.1706 17.0511C97.1706 16.2394 97.0102 15.6425 96.6955 15.2543C96.3841 14.8678 95.9114 14.6751 95.2858 14.6751C94.6426 14.6751 94.1637 14.8678 93.8427 15.2543C93.5226 15.6425 93.3604 16.2394 93.3604 17.0511C93.3604 17.8739 93.5226 18.4802 93.8427 18.8675C94.1637 19.2541 94.6426 19.4484 95.2858 19.4484C96.5412 19.4484 97.1706 18.6486 97.1706 17.0511Z" fill="#2CB34A"/>
<path d="M117.184 13.1616C117.73 13.8255 118 14.8397 118 16.2022V21.7876H114.524V16.2955C114.524 15.7409 114.438 15.3425 114.263 15.0981C114.089 14.8508 113.797 14.7292 113.389 14.7292C112.901 14.7292 112.524 14.9021 112.254 15.2451C111.984 15.5898 111.851 16.0712 111.851 16.7013V21.7876H108.373V16.2955C108.373 15.7409 108.281 15.3425 108.104 15.0981C107.922 14.8508 107.635 14.7292 107.239 14.7292C106.753 14.7292 106.375 14.9021 106.115 15.2451C105.851 15.5898 105.721 16.0712 105.721 16.7013V21.7876H102.238V15.1149C102.238 14.1093 102.192 13.2105 102.087 12.4243H105.354L105.527 13.7347C105.823 13.229 106.237 12.8408 106.767 12.5714C107.299 12.3031 107.911 12.168 108.601 12.168C109.999 12.168 110.948 12.734 111.447 13.862C111.793 13.3457 112.254 12.9341 112.821 12.6272C113.391 12.3208 114.01 12.168 114.675 12.168C115.802 12.168 116.639 12.4986 117.184 13.1616Z" fill="#2CB34A"/>
<path d="M78.3898 7.83398H74.9114V10.8376H78.3898V7.83398Z" fill="#2CB34A"/>
</svg>
